<svg width="27" height="26" viewBox="0 0 27 26" fill="none" xmlns="http://www.w3.org/2000/svg">
<path d="M23.855 13.8286C23.855 14.1599 23.5864 14.4286 23.255 14.4286H15.2836V22.4C15.2836 22.7314 15.0149 23 14.6836 23H13.0264C12.695 23 12.4264 22.7314 12.4264 22.4V14.4286H4.45498C4.12361 14.4286 3.85498 14.1599 3.85498 13.8286V12.1714C3.85498 11.8401 4.12361 11.5714 4.45498 11.5714H12.4264V3.6C12.4264 3.26863 12.695 3 13.0264 3H14.6836C15.0149 3 15.2836 3.26863 15.2836 3.6V11.5714H23.255C23.5864 11.5714 23.855 11.8401 23.855 12.1714V13.8286Z" fill="white" fill-opacity="0.85"/>
</svg>