<svg width="27" height="26" viewBox="0 0 27 26" fill="none" xmlns="http://www.w3.org/2000/svg">
<g clip-path="url(#clip0_3906_27933)">
<path d="M17.1049 15.1665C18.5008 15.1666 19.8427 15.7055 20.8509 16.6709C21.859 17.6363 22.4556 18.9536 22.5162 20.3481L22.5216 20.5832V21.6665C22.5218 22.2131 22.3153 22.7396 21.9437 23.1404C21.572 23.5412 21.0625 23.7868 20.5174 23.8278L20.3549 23.8332H5.18827C4.64165 23.8333 4.11516 23.6269 3.71435 23.2552C3.31353 22.8835 3.06802 22.3741 3.02702 21.829L3.02161 21.6665V20.5832C3.02169 19.1873 3.56061 17.8454 4.52599 16.8372C5.49137 15.8291 6.80867 15.2325 8.20319 15.1719L8.43827 15.1665H17.1049ZM23.6049 14.0832C23.8923 14.0832 24.1678 14.1973 24.371 14.4005C24.5741 14.6036 24.6883 14.8792 24.6883 15.1665C24.6883 15.4538 24.5741 15.7294 24.371 15.9325C24.1678 16.1357 23.8923 16.2498 23.6049 16.2498H22.5216C22.2343 16.2498 21.9587 16.1357 21.7556 15.9325C21.5524 15.7294 21.4383 15.4538 21.4383 15.1665C21.4383 14.8792 21.5524 14.6036 21.7556 14.4005C21.9587 14.1973 22.2343 14.0832 22.5216 14.0832H23.6049ZM12.7716 2.1665C14.2082 2.1665 15.5859 2.73719 16.6018 3.75301C17.6176 4.76883 18.1883 6.14658 18.1883 7.58317C18.1883 9.01976 17.6176 10.3975 16.6018 11.4133C15.5859 12.4292 14.2082 12.9998 12.7716 12.9998C11.335 12.9998 9.95727 12.4292 8.94144 11.4133C7.92562 10.3975 7.35494 9.01976 7.35494 7.58317C7.35494 6.14658 7.92562 4.76883 8.94144 3.75301C9.95727 2.73719 11.335 2.1665 12.7716 2.1665ZM23.6049 10.8332C23.8923 10.8332 24.1678 10.9473 24.371 11.1505C24.5741 11.3536 24.6883 11.6292 24.6883 11.9165C24.6883 12.2038 24.5741 12.4794 24.371 12.6825C24.1678 12.8857 23.8923 12.9998 23.6049 12.9998H21.4383C21.151 12.9998 20.8754 12.8857 20.6722 12.6825C20.4691 12.4794 20.3549 12.2038 20.3549 11.9165C20.3549 11.6292 20.4691 11.3536 20.6722 11.1505C20.8754 10.9473 21.151 10.8332 21.4383 10.8332H23.6049ZM23.6049 7.58317C23.8811 7.58348 24.1466 7.68921 24.3474 7.87876C24.5482 8.06831 24.669 8.32737 24.6852 8.60301C24.7014 8.87866 24.6117 9.15008 24.4345 9.36182C24.2573 9.57356 24.0059 9.70964 23.7317 9.74225L23.6049 9.74984H20.3549C20.0788 9.74953 19.8132 9.6438 19.6125 9.45425C19.4117 9.2647 19.2909 9.00564 19.2747 8.72999C19.2585 8.45435 19.3482 8.18293 19.5254 7.97119C19.7026 7.75944 19.954 7.62337 20.2282 7.59075L20.3549 7.58317H23.6049Z" fill="white" fill-opacity="0.85"/>
</g>
<defs>
<clipPath id="clip0_3906_27933">
<rect width="26" height="26" fill="white" transform="translate(0.85498)"/>
</clipPath>
</defs>
</svg>