<svg width="27" height="26" viewBox="0 0 27 26" fill="none" xmlns="http://www.w3.org/2000/svg">
<path d="M9.38623 0.8125H5.32373C5.09936 0.8125 4.91748 0.994384 4.91748 1.21875V5.28125C4.91748 5.50562 5.09936 5.6875 5.32373 5.6875H9.38623C9.6106 5.6875 9.79248 5.50562 9.79248 5.28125V1.21875C9.79248 0.994384 9.6106 0.8125 9.38623 0.8125Z" fill="white" fill-opacity="0.85"/>
<path d="M15.8862 0.8125H11.8237C11.5994 0.8125 11.4175 0.994384 11.4175 1.21875V5.28125C11.4175 5.50562 11.5994 5.6875 11.8237 5.6875H15.8862C16.1106 5.6875 16.2925 5.50562 16.2925 5.28125V1.21875C16.2925 0.994384 16.1106 0.8125 15.8862 0.8125Z" fill="white" fill-opacity="0.85"/>
<path d="M22.3862 0.8125H18.3237C18.0994 0.8125 17.9175 0.994384 17.9175 1.21875V5.28125C17.9175 5.50562 18.0994 5.6875 18.3237 5.6875H22.3862C22.6106 5.6875 22.7925 5.50562 22.7925 5.28125V1.21875C22.7925 0.994384 22.6106 0.8125 22.3862 0.8125Z" fill="white" fill-opacity="0.85"/>
<path d="M9.38623 7.3125H5.32373C5.09936 7.3125 4.91748 7.49438 4.91748 7.71875V11.7812C4.91748 12.0056 5.09936 12.1875 5.32373 12.1875H9.38623C9.6106 12.1875 9.79248 12.0056 9.79248 11.7812V7.71875C9.79248 7.49438 9.6106 7.3125 9.38623 7.3125Z" fill="white" fill-opacity="0.85"/>
<path d="M15.8862 7.3125H11.8237C11.5994 7.3125 11.4175 7.49438 11.4175 7.71875V11.7812C11.4175 12.0056 11.5994 12.1875 11.8237 12.1875H15.8862C16.1106 12.1875 16.2925 12.0056 16.2925 11.7812V7.71875C16.2925 7.49438 16.1106 7.3125 15.8862 7.3125Z" fill="white" fill-opacity="0.85"/>
<path d="M22.3862 7.3125H18.3237C18.0994 7.3125 17.9175 7.49438 17.9175 7.71875V11.7812C17.9175 12.0056 18.0994 12.1875 18.3237 12.1875H22.3862C22.6106 12.1875 22.7925 12.0056 22.7925 11.7812V7.71875C22.7925 7.49438 22.6106 7.3125 22.3862 7.3125Z" fill="white" fill-opacity="0.85"/>
<path d="M9.38623 13.8125H5.32373C5.09936 13.8125 4.91748 13.9944 4.91748 14.2188V18.2812C4.91748 18.5056 5.09936 18.6875 5.32373 18.6875H9.38623C9.6106 18.6875 9.79248 18.5056 9.79248 18.2812V14.2188C9.79248 13.9944 9.6106 13.8125 9.38623 13.8125Z" fill="white" fill-opacity="0.85"/>
<path d="M15.8862 13.8125H11.8237C11.5994 13.8125 11.4175 13.9944 11.4175 14.2188V18.2812C11.4175 18.5056 11.5994 18.6875 11.8237 18.6875H15.8862C16.1106 18.6875 16.2925 18.5056 16.2925 18.2812V14.2188C16.2925 13.9944 16.1106 13.8125 15.8862 13.8125Z" fill="white" fill-opacity="0.85"/>
<path d="M15.8862 20.3125H11.8237C11.5994 20.3125 11.4175 20.4944 11.4175 20.7188V24.7812C11.4175 25.0056 11.5994 25.1875 11.8237 25.1875H15.8862C16.1106 25.1875 16.2925 25.0056 16.2925 24.7812V20.7188C16.2925 20.4944 16.1106 20.3125 15.8862 20.3125Z" fill="white" fill-opacity="0.85"/>
<path d="M22.3862 13.8125H18.3237C18.0994 13.8125 17.9175 13.9944 17.9175 14.2188V18.2812C17.9175 18.5056 18.0994 18.6875 18.3237 18.6875H22.3862C22.6106 18.6875 22.7925 18.5056 22.7925 18.2812V14.2188C22.7925 13.9944 22.6106 13.8125 22.3862 13.8125Z" fill="white" fill-opacity="0.85"/>
</svg>