<svg width="27" height="26" viewBox="0 0 27 26" fill="none" xmlns="http://www.w3.org/2000/svg">
<g clip-path="url(#clip0_3906_27897)">
<path d="M21.98 12.9999C21.98 13.9164 21.8272 14.7987 21.5477 15.621L20.225 14.2982C20.3115 13.8709 20.3551 13.4359 20.355 12.9999V11.3749C20.355 11.1594 20.4406 10.9527 20.593 10.8003C20.7453 10.648 20.952 10.5624 21.1675 10.5624C21.383 10.5624 21.5896 10.648 21.742 10.8003C21.8944 10.9527 21.98 11.1594 21.98 11.3749V12.9999ZM13.855 19.4999C15.1842 19.4999 16.4192 19.1017 17.4495 18.416L18.6162 19.5844C17.4562 20.4256 16.0934 20.9432 14.6675 21.0842V24.3749H19.5425C19.758 24.3749 19.9646 24.4605 20.117 24.6128C20.2694 24.7652 20.355 24.9719 20.355 25.1874C20.355 25.4028 20.2694 25.6095 20.117 25.7619C19.9646 25.9143 19.758 25.9999 19.5425 25.9999H8.16748C7.95199 25.9999 7.74533 25.9143 7.59296 25.7619C7.44058 25.6095 7.35498 25.4028 7.35498 25.1874C7.35498 24.9719 7.44058 24.7652 7.59296 24.6128C7.74533 24.4605 7.95199 24.3749 8.16748 24.3749H13.0425V21.0842C11.0383 20.8828 9.18046 19.9441 7.82928 18.4503C6.4781 16.9565 5.72996 15.0141 5.72998 12.9999V11.3749C5.72998 11.1594 5.81558 10.9527 5.96796 10.8003C6.12033 10.648 6.32699 10.5624 6.54248 10.5624C6.75797 10.5624 6.96463 10.648 7.117 10.8003C7.26938 10.9527 7.35498 11.1594 7.35498 11.3749V12.9999C7.35498 14.7238 8.0398 16.3771 9.25879 17.596C10.4778 18.815 12.1311 19.4999 13.855 19.4999ZM18.73 4.87485V12.8032L9.23673 3.30998C9.60876 2.21674 10.3567 1.29101 11.3473 0.697573C12.338 0.104138 13.5071 -0.118484 14.6465 0.0693397C15.7859 0.257163 16.8217 0.843243 17.5695 1.72324C18.3173 2.60324 18.7285 3.72005 18.73 4.87485Z" fill="white" fill-opacity="0.85"/>
<path d="M16.2698 17.2364L8.98004 9.94506V13.0001C8.97978 13.8537 9.20368 14.6924 9.62935 15.4324C10.055 16.1723 10.6675 16.7875 11.4056 17.2164C12.1436 17.6454 12.9814 17.873 13.835 17.8765C14.6886 17.88 15.5282 17.6593 16.2698 17.2364ZM3.52979 2.2003L23.0298 21.7003L24.1803 20.5498L4.68029 1.0498L3.52979 2.2003Z" fill="white" fill-opacity="0.85"/>
</g>
<defs>
<clipPath id="clip0_3906_27897">
<rect width="26" height="26" fill="white" transform="translate(0.85498)"/>
</clipPath>
</defs>
</svg>