<svg width="27" height="26" viewBox="0 0 27 26" fill="none" xmlns="http://www.w3.org/2000/svg">
<path d="M17.105 16.25C17.5996 15.2659 17.9175 14.1761 17.9175 13C17.9175 11.8077 17.6128 10.7443 17.105 9.75M19.5425 18.6875C20.5317 16.965 21.1675 15.4345 21.1675 13C21.1675 10.5655 20.5581 9.05227 19.5425 7.3125M21.98 21.125C23.5034 18.7891 24.4175 16.4821 24.4175 13C24.4175 9.51793 23.5034 7.26172 21.98 4.875" stroke="white" stroke-opacity="0.85" stroke-width="1.5" stroke-miterlimit="10" stroke-linecap="round"/>
<path d="M7.23564 8.94258H3.07998C2.74861 8.94258 2.47998 9.21121 2.47998 9.54258V16.4574C2.47998 16.7888 2.74861 17.0574 3.07998 17.0574H7.23564L12.8806 21.5656C13.2735 21.8794 13.855 21.5996 13.855 21.0967V4.90328C13.855 4.40041 13.2735 4.12063 12.8806 4.43444L7.23564 8.94258Z" fill="white" fill-opacity="0.85"/>
</svg>