<svg width="27" height="26" viewBox="0 0 27 26" fill="none" xmlns="http://www.w3.org/2000/svg">
<g clip-path="url(#clip0_3906_27926)">
<path d="M20.355 7.3125V18.6875C20.355 19.1185 20.1838 19.5318 19.879 19.8365C19.5743 20.1413 19.161 20.3125 18.73 20.3125H4.10498C3.674 20.3125 3.26068 20.1413 2.95593 19.8365C2.65119 19.5318 2.47998 19.1185 2.47998 18.6875V7.3125C2.47998 6.88152 2.65119 6.4682 2.95593 6.16345C3.26068 5.8587 3.674 5.6875 4.10498 5.6875H18.73C19.161 5.6875 19.5743 5.8587 19.879 6.16345C20.1838 6.4682 20.355 6.88152 20.355 7.3125ZM26.2456 7.33789C26.131 7.30984 26.0117 7.30638 25.8957 7.32774C25.7796 7.34909 25.6694 7.39478 25.5722 7.4618L22.1608 9.73578C22.1051 9.77291 22.0595 9.82321 22.028 9.88221C21.9964 9.94121 21.9799 10.0071 21.98 10.074V15.926C21.9799 15.9929 21.9964 16.0588 22.028 16.1178C22.0595 16.1768 22.1051 16.2271 22.1608 16.2642L25.5915 18.5514C25.72 18.6371 25.8701 18.6844 26.0244 18.6878C26.1788 18.6912 26.3309 18.6506 26.4629 18.5707C26.5852 18.493 26.6854 18.3853 26.754 18.2578C26.8227 18.1303 26.8574 17.9873 26.855 17.8425V8.125C26.8551 7.9448 26.7953 7.76969 26.6849 7.6272C26.5746 7.48471 26.4201 7.38294 26.2456 7.33789Z" fill="white" fill-opacity="0.25"/>
</g>
<defs>
<clipPath id="clip0_3906_27926">
<rect width="26" height="26" fill="white" transform="translate(0.85498)"/>
</clipPath>
</defs>
</svg>
