<svg width="15" height="11" viewBox="0 0 15 11" fill="none" xmlns="http://www.w3.org/2000/svg">
<path fill-rule="evenodd" clip-rule="evenodd" d="M7.27477 2.71584C9.32418 2.71593 11.2952 3.51973 12.7805 4.96111C12.8924 5.07239 13.0711 5.07099 13.1813 4.95797L14.2504 3.85657C14.3062 3.79925 14.3373 3.7216 14.3368 3.6408C14.3364 3.56001 14.3044 3.48274 14.248 3.42608C10.3496 -0.38747 4.19936 -0.38747 0.300953 3.42608C0.244482 3.48269 0.212441 3.55994 0.211921 3.64074C0.2114 3.72153 0.242442 3.7992 0.298179 3.85657L1.36763 4.95797C1.47772 5.07116 1.65663 5.07257 1.76841 4.96111C3.25389 3.51964 5.22516 2.71583 7.27477 2.71584ZM7.30424 6.04108C8.43026 6.04101 9.51609 6.46822 10.3508 7.23971C10.4636 7.34921 10.6415 7.34683 10.7515 7.23436L11.8194 6.13297C11.8757 6.0752 11.9069 5.99682 11.9061 5.91539C11.9053 5.83395 11.8725 5.75624 11.8151 5.69965C9.27341 3.28628 5.33723 3.28628 2.79551 5.69965C2.7381 5.75624 2.70534 5.83399 2.70458 5.91545C2.70383 5.99692 2.73514 6.07528 2.7915 6.13297L3.85911 7.23436C3.96916 7.34683 4.14699 7.34921 4.25988 7.23971C5.094 6.46873 6.17897 6.04156 7.30424 6.04108ZM9.47579 8.19058C9.47743 8.27225 9.44598 8.35098 9.38886 8.4082L7.54159 10.3111C7.48744 10.367 7.41361 10.3985 7.33658 10.3985C7.25955 10.3985 7.18572 10.367 7.13157 10.3111L5.28399 8.4082C5.22691 8.35094 5.19552 8.27218 5.19721 8.19051C5.1989 8.10884 5.23353 8.03151 5.29293 7.97677C6.47266 6.95824 8.20049 6.95824 9.38023 7.97677C9.43958 8.03155 9.47416 8.10891 9.47579 8.19058Z" fill="white"/>
</svg>