<svg width="22" height="18" viewBox="0 0 22 18" fill="none" xmlns="http://www.w3.org/2000/svg">
<path fill-rule="evenodd" clip-rule="evenodd" d="M5.59951 1.2C5.87895 0.827412 6.2413 0.525002 6.65787 0.316718C7.07444 0.108435 7.53378 0 7.99951 0H18.9995C19.7952 0 20.5582 0.316071 21.1208 0.87868C21.6834 1.44129 21.9995 2.20435 21.9995 3V15C21.9995 15.7956 21.6834 16.5587 21.1208 17.1213C20.5582 17.6839 19.7952 18 18.9995 18H7.99951C7.53378 18 7.07444 17.8916 6.65787 17.6833C6.2413 17.475 5.87895 17.1726 5.59951 16.8L1.09951 10.8C0.710045 10.2807 0.499512 9.64911 0.499512 9C0.499512 8.35089 0.710045 7.71929 1.09951 7.2L5.59951 1.2ZM16.7065 6.707C16.8887 6.5184 16.9895 6.2658 16.9872 6.0036C16.9849 5.7414 16.8797 5.49059 16.6943 5.30518C16.5089 5.11977 16.2581 5.0146 15.9959 5.01233C15.7337 5.01005 15.4811 5.11084 15.2925 5.293L12.9995 7.586L10.7065 5.293C10.6143 5.19749 10.5039 5.12131 10.3819 5.0689C10.2599 5.01649 10.1287 4.9889 9.99591 4.98775C9.86313 4.9866 9.73145 5.0119 9.60856 5.06218C9.48566 5.11246 9.37401 5.18671 9.28012 5.28061C9.18622 5.3745 9.11197 5.48615 9.06169 5.60905C9.01141 5.73194 8.98611 5.86362 8.98726 5.9964C8.98841 6.12918 9.016 6.2604 9.06841 6.3824C9.12082 6.50441 9.197 6.61475 9.29251 6.707L11.5855 9L9.29251 11.293C9.11035 11.4816 9.00956 11.7342 9.01184 11.9964C9.01412 12.2586 9.11928 12.5094 9.30469 12.6948C9.4901 12.8802 9.74091 12.9854 10.0031 12.9877C10.2653 12.99 10.5179 12.8892 10.7065 12.707L12.9995 10.414L15.2925 12.707C15.4811 12.8892 15.7337 12.99 15.9959 12.9877C16.2581 12.9854 16.5089 12.8802 16.6943 12.6948C16.8797 12.5094 16.9849 12.2586 16.9872 11.9964C16.9895 11.7342 16.8887 11.4816 16.7065 11.293L14.4135 9L16.7065 6.707Z" fill="white" fill-opacity="0.7"/>
</svg>