<svg width="22" height="18" viewBox="0 0 22 18" fill="none" xmlns="http://www.w3.org/2000/svg">
<path d="M3.99951 0.25C3.07125 0.25 2.18102 0.618749 1.52464 1.27513C0.868261 1.9315 0.499512 2.82174 0.499512 3.75V4.10175L10.9995 9.756L21.4995 4.1035V3.75C21.4995 2.82174 21.1308 1.9315 20.4744 1.27513C19.818 0.618749 18.9278 0.25 17.9995 0.25H3.99951ZM21.4995 6.08975L11.4143 11.52C11.2868 11.5886 11.1443 11.6245 10.9995 11.6245C10.8547 11.6245 10.7122 11.5886 10.5848 11.52L0.499512 6.08975V14.25C0.499512 15.1783 0.868261 16.0685 1.52464 16.7249C2.18102 17.3813 3.07125 17.75 3.99951 17.75H17.9995C18.9278 17.75 19.818 17.3813 20.4744 16.7249C21.1308 16.0685 21.4995 15.1783 21.4995 14.25V6.08975Z" fill="white" fill-opacity="0.7"/>
</svg>