<svg width="23" height="12" viewBox="0 0 23 12" fill="none" xmlns="http://www.w3.org/2000/svg">
<path opacity="0.35" d="M3.47683 1.17368H17.6018C19.1952 1.17368 20.487 2.46542 20.487 4.05886V8.21326C20.487 9.8067 19.1952 11.0984 17.6018 11.0984H3.47683C1.88338 11.0984 0.591644 9.8067 0.591644 8.21326V4.05886C0.591644 2.46542 1.88339 1.17368 3.47683 1.17368Z" stroke="white" stroke-width="0.876648"/>
<path opacity="0.4" d="M21.7563 4.88965V8.39624C22.4618 8.09925 22.9206 7.40838 22.9206 6.64294C22.9206 5.87751 22.4618 5.18664 21.7563 4.88965" fill="white"/>
<path d="M1.81494 4.05922C1.81494 3.14145 2.55894 2.39746 3.4767 2.39746H17.6532C18.5709 2.39746 19.3149 3.14145 19.3149 4.05922V8.21361C19.3149 9.13137 18.5709 9.87537 17.6532 9.87537H3.4767C2.55894 9.87537 1.81494 9.13137 1.81494 8.21361V4.05922Z" fill="white"/>
</svg>
