<svg width="16" height="11" viewBox="0 0 16 11" fill="none" xmlns="http://www.w3.org/2000/svg">
<path d="M8.91816 3.05855C8.91816 2.59967 9.29016 2.22767 9.74904 2.22767H10.5799C11.0388 2.22767 11.4108 2.59967 11.4108 3.05855V9.70558C11.4108 10.1645 11.0388 10.5365 10.5799 10.5365H9.74904C9.29016 10.5365 8.91816 10.1645 8.91816 9.70558V3.05855Z" fill="white"/>
<path d="M13.0725 1.3968C13.0725 0.937915 13.4445 0.565918 13.9034 0.565918H14.7343C15.1932 0.565918 15.5652 0.937915 15.5652 1.3968V9.70558C15.5652 10.1645 15.1932 10.5365 14.7343 10.5365H13.9034C13.4445 10.5365 13.0725 10.1645 13.0725 9.70558V1.3968Z" fill="white"/>
<path d="M4.76377 5.96663C4.76377 5.50775 5.13576 5.13575 5.59465 5.13575H6.42552C6.8844 5.13575 7.2564 5.50775 7.2564 5.96663V9.70558C7.2564 10.1645 6.8844 10.5365 6.42552 10.5365H5.59465C5.13576 10.5365 4.76377 10.1645 4.76377 9.70558V5.96663Z" fill="white"/>
<path d="M0.609375 8.04382C0.609375 7.58494 0.981372 7.21294 1.44025 7.21294H2.27113C2.73001 7.21294 3.10201 7.58494 3.10201 8.04382V9.70558C3.10201 10.1645 2.73001 10.5365 2.27113 10.5365H1.44025C0.981372 10.5365 0.609375 10.1645 0.609375 9.70558V8.04382Z" fill="white"/>
</svg>