<svg width="22" height="22" viewBox="0 0 22 22" fill="none" xmlns="http://www.w3.org/2000/svg">
<path d="M2.03451 21.1501C1.69618 21.1501 1.41423 21.0373 1.18868 20.8118C0.96312 20.5862 0.850342 20.3043 0.850342 19.9659L0.850342 15.3984C0.850342 15.1353 0.934925 14.9048 1.10409 14.7071C1.27326 14.5094 1.48942 14.3827 1.75256 14.327L5.6434 13.5376C5.90655 13.5 6.17458 13.5237 6.4475 13.6086C6.72043 13.6936 6.94109 13.8203 7.10951 13.9887L9.75979 16.639C11.1883 15.7744 12.4946 14.75 13.6788 13.5658C14.863 12.3816 15.8498 11.1129 16.6392 9.75954L13.9326 6.99649C13.7634 6.82732 13.6551 6.63447 13.6078 6.41794C13.5604 6.2014 13.5559 5.96194 13.5942 5.69954L14.3273 1.75232C14.3649 1.48917 14.4871 1.27301 14.6938 1.10385C14.9006 0.934681 15.1355 0.850098 15.3987 0.850098L19.9662 0.850098C20.3045 0.850098 20.5865 0.962875 20.812 1.18843C21.0376 1.41399 21.1503 1.69593 21.1503 2.03426C21.1503 4.45899 20.6098 6.82281 19.5286 9.12573C18.4474 11.4287 17.0189 13.4681 15.243 15.2439C13.4672 17.0198 11.4278 18.4483 9.12485 19.5295C6.82193 20.6106 4.45848 21.1509 2.03451 21.1501Z" fill="white"/>
</svg>
