<svg width="13" height="13" viewBox="0 0 13 13" fill="none" xmlns="http://www.w3.org/2000/svg">
<path d="M12 0.999847L8 4.99985M8 0.999847L12 4.99985" stroke="#F93F36" stroke-opacity="0.65" stroke-width="1.2" stroke-linecap="round"/>
<path d="M4.52825 1.98701C4.967 2.77451 5.1915 3.8076 4.5 4.49985C4.5 4.49985 2.9775 6.4781 4.5 7.99985C6.02025 9.5201 8 8.99985 8 8.99985C9.05 8.49985 9.71325 8.0611 10.5 8.49985L11 9.01573C11.703 10.1524 12.0448 10.9543 11 11.9998C10.3722 12.6268 9.89975 12.9633 9.05 12.9948C7.619 13.0495 5.18825 12.6873 2.75 10.2498C0.312495 7.81151 -0.0497545 5.38076 0.00499553 3.94976C0.0372455 3.10001 0.525496 2.33051 1.1525 1.70276C2.198 0.658015 3.8645 0.798265 4.5275 1.98776L4.52825 1.98701Z" fill="#F93F36" fill-opacity="0.65"/>
</svg>
