<svg width="28" height="11" viewBox="0 0 28 11" fill="none" xmlns="http://www.w3.org/2000/svg">
<path d="M27.5174 5.16265C27.7567 5.40189 27.8763 5.681 27.8763 5.99998C27.8763 6.31896 27.7567 6.59807 27.5174 6.83731L24.2877 10.067C24.1016 10.2531 23.8789 10.3562 23.6194 10.3764C23.36 10.3966 23.1176 10.3334 22.8922 10.1866L19.5827 7.99363C19.37 7.83414 19.1973 7.62786 19.0644 7.3748C18.9314 7.12174 18.865 6.87612 18.865 6.63795L18.865 2.88989C17.2435 2.49116 15.5954 2.29179 13.9207 2.29179C12.2461 2.29179 10.6512 2.49116 9.13599 2.88989L9.09611 6.75757C9.09611 6.9968 9.0363 7.20973 8.91668 7.39633C8.79707 7.58294 8.63093 7.75545 8.41827 7.91388L5.10882 10.1866C4.89616 10.3461 4.65692 10.4126 4.3911 10.386C4.12528 10.3594 3.89934 10.2531 3.71326 10.067L0.483552 6.83731C0.244314 6.59807 0.124695 6.31896 0.124695 5.99998C0.124696 5.681 0.244315 5.40189 0.483552 5.16265C2.19809 3.44811 4.25181 2.15888 6.64472 1.29497C9.03763 0.431055 11.4898 -0.000901176 14.0013 -0.000900501C16.5128 -0.000901176 18.9649 0.431056 21.3578 1.29497C23.7508 2.15889 25.8039 3.44811 27.5174 5.16265Z" fill="white"/>
</svg>
