<svg width="22" height="26" viewBox="0 0 22 26" fill="none" xmlns="http://www.w3.org/2000/svg">
<path d="M18.9824 13C18.9824 13.9165 18.8297 14.7989 18.5502 15.6211L17.2274 14.2984C17.314 13.871 17.3575 13.436 17.3574 13V11.375C17.3574 11.1595 17.443 10.9529 17.5954 10.8005C17.7478 10.6481 17.9544 10.5625 18.1699 10.5625C18.3854 10.5625 18.5921 10.6481 18.7444 10.8005C18.8968 10.9529 18.9824 11.1595 18.9824 11.375V13ZM10.8574 19.5C12.1867 19.5 13.4217 19.1019 14.4519 18.4161L15.6187 19.5845C14.4587 20.4257 13.0959 20.9434 11.6699 21.0844V24.375H16.5449C16.7604 24.375 16.9671 24.4606 17.1194 24.613C17.2718 24.7654 17.3574 24.972 17.3574 25.1875C17.3574 25.403 17.2718 25.6097 17.1194 25.762C16.9671 25.9144 16.7604 26 16.5449 26H5.16992C4.95443 26 4.74777 25.9144 4.5954 25.762C4.44302 25.6097 4.35742 25.403 4.35742 25.1875C4.35742 24.972 4.44302 24.7654 4.5954 24.613C4.74777 24.4606 4.95443 24.375 5.16992 24.375H10.0449V21.0844C8.04078 20.883 6.18291 19.9443 4.83173 18.4505C3.48055 16.9567 2.7324 15.0142 2.73242 13V11.375C2.73242 11.1595 2.81802 10.9529 2.9704 10.8005C3.12277 10.6481 3.32943 10.5625 3.54492 10.5625C3.76041 10.5625 3.96707 10.6481 4.11945 10.8005C4.27182 10.9529 4.35742 11.1595 4.35742 11.375V13C4.35742 14.7239 5.04224 16.3772 6.26123 17.5962C7.48021 18.8152 9.13351 19.5 10.8574 19.5ZM15.7324 4.875V12.8034L6.23917 3.31013C6.6112 2.2169 7.35912 1.29116 8.34978 0.697725C9.34043 0.10429 10.5095 -0.118331 11.649 0.0694923C12.7884 0.257316 13.8242 0.843396 14.572 1.72339C15.3197 2.60339 15.731 3.7202 15.7324 4.875Z" fill="white" fill-opacity="0.85"/>
<path d="M13.2722 17.2364L5.98248 9.94499V13C5.98222 13.8536 6.20613 14.6924 6.63179 15.4323C7.05745 16.1723 7.66994 16.7875 8.408 17.2164C9.14606 17.6453 9.98381 17.8729 10.8374 17.8764C11.6911 17.8799 12.5307 17.6592 13.2722 17.2364ZM0.532227 2.20024L20.0322 21.7002L21.1827 20.5497L1.68273 1.04974L0.532227 2.20024Z" fill="white" fill-opacity="0.85"/>
</svg>
