<svg width="12" height="12" viewBox="0 0 12 12" fill="none" xmlns="http://www.w3.org/2000/svg">
<path d="M8.24951 3.75L11.2495 0.75L8.24951 3.75ZM11.2495 0.75V3V0.75ZM11.2495 0.75H8.99951H11.2495Z" fill="#34FF66" fill-opacity="0.65"/>
<path d="M8.24951 3.75L11.2495 0.75M11.2495 0.75V3M11.2495 0.75H8.99951" stroke="#34FF66" stroke-opacity="0.65" stroke-width="1.2" stroke-linecap="round" stroke-linejoin="round"/>
<path d="M4.52825 0.987015C4.967 1.77451 5.1915 2.8076 4.5 3.49985C4.5 3.49985 2.9775 5.4781 4.5 6.99985C6.02025 8.5201 8 7.99985 8 7.99985C9.05 7.49985 9.71325 7.0611 10.5 7.49985L11 8.01573C11.703 9.15243 12.0448 9.95435 11 10.9998C10.3722 11.6268 9.89975 11.9633 9.05 11.9948C7.619 12.0495 5.18825 11.6873 2.75 9.24976C0.312495 6.81151 -0.0497545 4.38076 0.00499553 2.94976C0.0372455 2.10001 0.525496 1.33051 1.1525 0.702765C2.198 -0.341985 3.8645 -0.201735 4.5275 0.987765L4.52825 0.987015Z" fill="#34FF66" fill-opacity="0.65"/>
</svg>
