<svg width="22" height="22" viewBox="0 0 22 22" fill="none" xmlns="http://www.w3.org/2000/svg">
<path d="M14.1075 13.1667C15.5033 13.1668 16.8453 13.7057 17.8534 14.6711C18.8616 15.6364 19.4582 16.9538 19.5188 18.3483L19.5242 18.5834V19.6667C19.5243 20.2133 19.3179 20.7398 18.9462 21.1406C18.5745 21.5414 18.0651 21.7869 17.52 21.8279L17.3575 21.8334H2.19084C1.64421 21.8335 1.11772 21.6271 0.71691 21.2554C0.316096 20.8837 0.0705835 20.3743 0.0295867 19.8292L0.0241699 19.6667V18.5834C0.0242506 17.1875 0.563173 15.8456 1.52855 14.8374C2.49393 13.8293 3.81123 13.2327 5.20575 13.1721L5.44084 13.1667H14.1075ZM20.6075 12.0834C20.8948 12.0834 21.1704 12.1975 21.3735 12.4007C21.5767 12.6038 21.6908 12.8794 21.6908 13.1667C21.6908 13.454 21.5767 13.7296 21.3735 13.9327C21.1704 14.1359 20.8948 14.25 20.6075 14.25H19.5242C19.2369 14.25 18.9613 14.1359 18.7581 13.9327C18.555 13.7296 18.4408 13.454 18.4408 13.1667C18.4408 12.8794 18.555 12.6038 18.7581 12.4007C18.9613 12.1975 19.2369 12.0834 19.5242 12.0834H20.6075ZM9.77417 0.166687C11.2108 0.166687 12.5885 0.73737 13.6043 1.75319C14.6202 2.76901 15.1908 4.14676 15.1908 5.58335C15.1908 7.01994 14.6202 8.39769 13.6043 9.41352C12.5885 10.4293 11.2108 11 9.77417 11C8.33758 11 6.95983 10.4293 5.94401 9.41352C4.92819 8.39769 4.3575 7.01994 4.3575 5.58335C4.3575 4.14676 4.92819 2.76901 5.94401 1.75319C6.95983 0.73737 8.33758 0.166687 9.77417 0.166687ZM20.6075 8.83335C20.8948 8.83335 21.1704 8.94749 21.3735 9.15065C21.5767 9.35382 21.6908 9.62937 21.6908 9.91669C21.6908 10.204 21.5767 10.4796 21.3735 10.6827C21.1704 10.8859 20.8948 11 20.6075 11H18.4408C18.1535 11 17.878 10.8859 17.6748 10.6827C17.4716 10.4796 17.3575 10.204 17.3575 9.91669C17.3575 9.62937 17.4716 9.35382 17.6748 9.15065C17.878 8.94749 18.1535 8.83335 18.4408 8.83335H20.6075ZM20.6075 5.58335C20.8836 5.58366 21.1492 5.68939 21.35 5.87894C21.5508 6.06849 21.6716 6.32755 21.6878 6.6032C21.704 6.87884 21.6143 7.15026 21.4371 7.36201C21.2598 7.57375 21.0084 7.70983 20.7343 7.74244L20.6075 7.75002H17.3575C17.0814 7.74971 16.8158 7.64399 16.615 7.45444C16.4142 7.26489 16.2934 7.00582 16.2772 6.73018C16.2611 6.45453 16.3507 6.18311 16.528 5.97137C16.7052 5.75963 16.9566 5.62355 17.2308 5.59094L17.3575 5.58335H20.6075Z" fill="white" fill-opacity="0.85"/>
</svg>
