<svg width="21" height="20" viewBox="0 0 21 20" fill="none" xmlns="http://www.w3.org/2000/svg">
<path d="M20.8574 10.8286C20.8574 11.1599 20.5888 11.4286 20.2574 11.4286H12.286V19.4C12.286 19.7314 12.0174 20 11.686 20H10.0288C9.69748 20 9.42885 19.7314 9.42885 19.4V11.4286H1.45742C1.12605 11.4286 0.857422 11.1599 0.857422 10.8286V9.17143C0.857422 8.84006 1.12605 8.57143 1.45742 8.57143H9.42885V0.599999C9.42885 0.268628 9.69748 0 10.0289 0H11.686C12.0174 0 12.286 0.268629 12.286 0.6V8.57143H20.2574C20.5888 8.57143 20.8574 8.84006 20.8574 9.17143V10.8286Z" fill="white" fill-opacity="0.85"/>
</svg>
