<svg width="17" height="26" viewBox="0 0 17 26" fill="none" xmlns="http://www.w3.org/2000/svg">
<path d="M16.9824 13C16.9824 13.9165 16.8297 14.7989 16.5502 15.6211L15.2274 14.2984C15.314 13.871 15.3575 13.436 15.3574 13V11.375C15.3574 11.1595 15.443 10.9529 15.5954 10.8005C15.7478 10.6481 15.9544 10.5625 16.1699 10.5625C16.3854 10.5625 16.5921 10.6481 16.7444 10.8005C16.8968 10.9529 16.9824 11.1595 16.9824 11.375V13ZM8.85742 19.5C10.1867 19.5 11.4217 19.1019 12.4519 18.4161L13.6187 19.5845C12.4587 20.4257 11.0959 20.9433 9.66992 21.0844V24.375H14.5449C14.7604 24.375 14.9671 24.4606 15.1194 24.613C15.2718 24.7654 15.3574 24.972 15.3574 25.1875C15.3574 25.403 15.2718 25.6097 15.1194 25.762C14.9671 25.9144 14.7604 26 14.5449 26H3.16992C2.95443 26 2.74777 25.9144 2.5954 25.762C2.44302 25.6097 2.35742 25.403 2.35742 25.1875C2.35742 24.972 2.44302 24.7654 2.5954 24.613C2.74777 24.4606 2.95443 24.375 3.16992 24.375H8.04492V21.0844C6.04078 20.883 4.18291 19.9443 2.83173 18.4505C1.48055 16.9567 0.732397 15.0142 0.732422 13V11.375C0.732422 11.1595 0.818024 10.9529 0.970398 10.8005C1.12277 10.6481 1.32943 10.5625 1.54492 10.5625C1.76041 10.5625 1.96707 10.6481 2.11945 10.8005C2.27182 10.9529 2.35742 11.1595 2.35742 11.375V13C2.35742 14.7239 3.04224 16.3772 4.26123 17.5962C5.48021 18.8152 7.13351 19.5 8.85742 19.5ZM13.7324 4.875V12.8034L4.23917 3.31013C4.6112 2.2169 5.35912 1.29116 6.34978 0.697725C7.34043 0.10429 8.50954 -0.118331 9.64896 0.0694923C10.7884 0.257316 11.8242 0.843396 12.572 1.72339C13.3197 2.60339 13.731 3.7202 13.7324 4.875Z" fill="white" fill-opacity="0.85"/>
</svg>
